<svg xmlns="http://www.w3.org/2000/svg" width="913" height="427" viewBox="0 0 913 427" fill="none">
  <title>Lokantara</title>
  <g transform="translate(50.631 212.336) scale(1 -1)">
    <path fill="#0E1E36" d="M9.326 0 L9.326 105.688 L28.168 105.688 L28.168 15.9 L76.131 15.9 L76.131 0 Z M128.163 -1.805 Q112.73 -1.805 101.468 4.849 Q90.205 11.502 84.098 23.757 Q77.992 36.012 77.992 52.808 L77.992 52.954 Q77.992 69.749 84.135 81.968 Q90.278 94.186 101.541 100.84 Q112.804 107.493 128.163 107.493 Q143.568 107.493 154.817 100.828 Q166.067 94.163 172.173 81.956 Q178.28 69.749 178.28 52.954 L178.28 52.808 Q178.28 36.012 172.173 23.769 Q166.067 11.525 154.854 4.86 Q143.641 -1.805 128.163 -1.805 Z M128.163 14.528 Q137.754 14.528 144.665 19.243 Q151.576 23.958 155.314 32.552 Q159.052 41.146 159.052 52.808 L159.052 52.954 Q159.052 64.689 155.277 73.271 Q151.503 81.853 144.555 86.506 Q137.608 91.16 128.163 91.16 Q118.765 91.16 111.792 86.518 Q104.819 81.877 101.02 73.319 Q97.22 64.762 97.22 52.954 L97.22 52.808 Q97.22 41.073 101.02 32.479 Q104.819 23.885 111.755 19.207 Q118.692 14.528 128.163 14.528 Z M207.428 32.889 L207.428 56.06 L208.896 56.06 L249.871 105.688 L271.502 105.688 L231.525 57.938 L228.547 57.938 Z M189.567 0 L189.567 105.688 L208.41 105.688 L208.41 0 Z M251.72 0 L216.198 50.182 L229.743 62.804 L274.666 0 Z M273.512 0 L311.313 105.688 L327.247 105.688 L327.247 86.9 L321.743 86.9 L293.316 0 Z M292.69 27.327 L297.734 41.919 L346.14 41.919 L351.183 27.327 Z M350.507 0 L322.129 86.9 L322.129 105.688 L332.56 105.688 L370.311 0 Z M377.833 0 L377.833 105.688 L394.78 105.688 L456.602 16.798 L438.743 31.566 L446.76 31.566 L446.76 105.688 L465.502 105.688 L465.502 0 L448.649 0 L386.756 89.169 L404.592 74.401 L396.576 74.401 L396.576 0 Z M506.211 0 L506.211 89.788 L474.625 89.788 L474.625 105.688 L556.639 105.688 L556.639 89.788 L525.053 89.788 L525.053 0 Z M543.965 0 L581.766 105.688 L597.699 105.688 L597.699 86.9 L592.196 86.9 L563.769 0 Z M563.143 27.327 L568.186 41.919 L616.592 41.919 L621.636 27.327 Z M620.959 0 L592.582 86.9 L592.582 105.688 L603.013 105.688 L640.763 0 Z M670.784 42.372 L670.784 42.996 C671.72 42.84 672.968 42.84 673.748 42.84 C684.356 43.932 693.248 49.86 693.248 64.368 L693.248 90.108 L709.628 90.108 L709.628 104.46 L634.748 104.46 L634.748 90.108 L675.308 90.108 L675.308 64.992 C675.308 58.752 672.188 56.412 667.352 56.412 C661.736 56.412 658.148 59.532 654.092 65.148 L640.364 54.384 L683.732 -0.216 L698.552 9.144 L682.64 28.8 C677.18 35.508 674.06 38.94 670.784 42.372 Z M705.613 0 L743.414 105.688 L759.347 105.688 L759.347 86.9 L753.844 86.9 L725.417 0 Z M724.791 27.327 L729.834 41.919 L778.24 41.919 L783.284 27.327 Z M782.607 0 L754.229 86.9 L754.229 105.688 L764.661 105.688 L802.411 0 Z"/>
    <path fill="#C99A4A" d="M294.135 -83.949 Q289.779 -83.949 284.961 -82.629 Q280.143 -81.309 277.635 -79.329 Q276.711 -78.537 276.843 -76.953 L279.747 -59.661 Q280.011 -57.945 281.331 -57.945 Q282.783 -57.945 282.783 -59.793 L283.047 -66.129 Q283.311 -73.653 286.677 -77.151 Q290.043 -80.649 294.927 -80.649 Q299.151 -80.649 302.187 -77.943 Q305.223 -75.237 305.223 -69.957 Q305.223 -66.921 304.299 -64.347 Q303.375 -61.773 301.395 -58.803 Q299.415 -55.833 295.983 -51.609 Q291.495 -45.801 289.317 -41.643 Q287.139 -37.485 287.139 -32.997 Q287.139 -24.681 292.353 -19.665 Q297.567 -14.649 305.619 -14.649 Q309.183 -14.649 312.549 -15.705 Q315.915 -16.761 318.159 -18.873 Q319.347 -19.797 318.951 -21.249 L315.255 -38.937 Q314.859 -40.653 313.671 -40.653 Q312.483 -40.653 312.219 -38.805 L311.823 -32.469 Q311.295 -24.549 309.777 -21.117 Q308.259 -17.685 303.507 -17.685 Q299.283 -17.685 296.643 -20.589 Q294.003 -23.493 294.003 -27.585 Q294.003 -31.941 296.379 -35.571 Q298.755 -39.201 302.847 -44.745 Q308.259 -51.873 310.173 -56.097 Q312.087 -60.321 312.087 -64.677 Q312.087 -70.221 309.645 -74.577 Q307.203 -78.933 303.111 -81.441 Q299.019 -83.949 294.135 -83.949 Z M308.855 -109.821 Q307.139 -109.821 307.139 -108.369 Q307.139 -107.049 309.251 -106.785 L311.099 -106.521 Q313.739 -106.125 314.993 -105.003 Q316.247 -103.881 316.907 -100.977 L334.463 -25.209 Q334.727 -24.153 334.133 -23.559 Q333.539 -22.965 332.483 -23.625 Q331.163 -24.285 329.975 -25.011 Q328.787 -25.737 327.599 -26.529 Q326.411 -27.321 325.619 -26.991 Q324.827 -26.661 324.827 -25.737 Q324.827 -24.813 326.147 -23.889 Q329.843 -21.381 333.803 -19.533 Q336.047 -18.477 336.575 -16.101 L338.291 -8.577 Q338.951 -5.805 341.723 -5.805 L344.099 -5.805 Q345.683 -5.805 346.475 -6.729 Q347.267 -7.653 346.871 -9.369 L345.947 -13.197 Q345.551 -15.441 347.663 -15.045 Q350.699 -14.649 353.471 -14.649 Q363.239 -14.649 369.443 -20.193 Q375.647 -25.737 375.647 -37.221 Q375.647 -46.197 372.347 -54.579 Q369.047 -62.961 363.635 -69.561 Q358.223 -76.161 351.755 -80.055 Q345.287 -83.949 338.819 -83.949 Q335.255 -83.949 332.087 -82.497 Q330.107 -81.573 329.711 -83.553 L325.751 -100.977 Q325.091 -103.881 325.817 -104.805 Q326.543 -105.729 329.051 -106.125 L332.483 -106.653 Q334.859 -107.049 334.859 -108.237 Q334.859 -109.821 332.615 -109.821 Z M333.407 -67.581 Q331.031 -80.649 339.083 -80.649 Q343.703 -80.649 348.455 -76.755 Q353.207 -72.861 357.299 -66.327 Q361.391 -59.793 363.899 -51.609 Q366.407 -43.425 366.407 -34.845 Q366.407 -26.001 362.579 -22.107 Q358.751 -18.213 351.359 -18.213 Q344.759 -18.213 343.835 -22.701 Z M390.235 -83.949 Q385.483 -83.949 382.843 -79.857 Q380.203 -75.765 380.203 -67.845 Q380.203 -60.321 382.315 -52.731 Q384.427 -45.141 388.123 -38.277 Q391.819 -31.413 396.505 -26.133 Q401.191 -20.853 406.405 -17.751 Q411.619 -14.649 416.767 -14.649 Q419.275 -14.649 421.519 -15.639 Q423.763 -16.629 425.215 -18.741 Q426.007 -19.929 426.799 -19.929 Q427.591 -19.929 428.383 -18.741 Q429.835 -16.629 430.759 -16.035 Q431.683 -15.441 432.475 -15.441 Q434.191 -15.441 433.795 -17.289 L422.047 -67.845 Q420.067 -76.425 424.687 -76.425 Q427.723 -76.425 430.165 -72.333 Q432.607 -68.241 435.115 -59.661 Q435.511 -58.209 436.831 -58.209 Q437.755 -58.209 438.019 -59.001 Q438.283 -59.793 438.019 -60.849 Q435.511 -73.257 431.287 -78.603 Q427.063 -83.949 421.123 -83.949 Q415.975 -83.949 413.797 -79.593 Q411.619 -75.237 413.335 -67.713 L415.051 -60.453 Q415.315 -59.529 414.721 -59.397 Q414.127 -59.265 413.731 -60.057 Q406.471 -73.389 400.861 -78.669 Q395.251 -83.949 390.235 -83.949 Z M393.535 -77.217 Q396.703 -77.217 400.531 -73.389 Q404.359 -69.561 408.121 -63.489 Q411.883 -57.417 415.051 -50.421 Q418.219 -43.425 420.133 -36.957 Q422.047 -30.489 422.047 -26.001 Q422.047 -17.949 416.371 -17.949 Q412.939 -17.949 409.111 -21.051 Q405.283 -24.153 401.785 -29.433 Q398.287 -34.713 395.449 -41.379 Q392.611 -48.045 390.895 -55.239 Q389.179 -62.433 389.179 -69.297 Q389.179 -73.917 390.301 -75.567 Q391.423 -77.217 393.535 -77.217 Z M459.999 -83.949 Q452.739 -83.949 447.987 -77.943 Q443.235 -71.937 443.235 -62.565 Q443.235 -53.721 446.073 -45.207 Q448.911 -36.693 453.729 -29.763 Q458.547 -22.833 464.421 -18.741 Q470.295 -14.649 476.235 -14.649 Q482.571 -14.649 486.927 -18.081 Q487.587 -18.609 487.719 -18.939 Q487.851 -19.269 487.587 -20.325 L484.023 -37.617 Q483.627 -39.465 482.307 -39.465 Q480.855 -39.465 480.591 -37.485 L479.931 -28.113 Q479.535 -22.041 478.149 -20.193 Q476.763 -18.345 474.123 -18.345 Q470.427 -18.345 466.599 -21.975 Q462.771 -25.605 459.537 -31.743 Q456.303 -37.881 454.389 -45.339 Q452.475 -52.797 452.475 -60.453 Q452.475 -77.085 463.299 -77.085 Q468.447 -77.085 472.605 -72.333 Q476.763 -67.581 480.327 -57.549 Q480.723 -56.229 482.175 -56.229 Q482.967 -56.229 483.099 -56.823 Q483.231 -57.417 482.835 -59.133 Q481.515 -66.393 478.083 -71.937 Q474.651 -77.481 469.965 -80.715 Q465.279 -83.949 459.999 -83.949 Z M504.815 -83.949 Q497.819 -83.949 493.595 -78.471 Q489.371 -72.993 489.371 -62.961 Q489.371 -54.249 492.473 -45.669 Q495.575 -37.089 500.591 -30.093 Q505.607 -23.097 511.613 -18.873 Q517.619 -14.649 523.295 -14.649 Q529.499 -14.649 532.205 -17.619 Q534.911 -20.589 534.911 -25.605 Q534.911 -31.545 530.753 -37.419 Q526.595 -43.293 519.137 -47.913 Q511.679 -52.533 501.647 -54.777 Q498.743 -55.437 498.611 -58.077 Q498.479 -59.001 498.479 -59.991 Q498.479 -60.981 498.479 -61.905 Q498.479 -69.429 501.053 -73.257 Q503.627 -77.085 508.115 -77.085 Q513.131 -77.085 517.817 -72.465 Q522.503 -67.845 525.671 -59.397 Q526.067 -58.209 527.255 -58.209 Q528.047 -58.209 528.245 -58.869 Q528.443 -59.529 528.179 -60.453 Q523.955 -72.069 517.949 -78.009 Q511.943 -83.949 504.815 -83.949 Z M499.931 -49.761 Q499.667 -50.685 500.261 -51.279 Q500.855 -51.873 501.779 -51.609 Q509.963 -49.365 515.507 -44.811 Q521.051 -40.257 523.889 -34.581 Q526.727 -28.905 526.727 -23.493 Q526.727 -17.949 522.371 -17.949 Q518.543 -17.949 514.055 -22.437 Q509.567 -26.925 505.739 -34.185 Q501.911 -41.445 499.931 -49.761 Z"/>
  </g>
</svg>
