<svg xmlns="http://www.w3.org/2000/svg" width="913" height="309" viewBox="0 0 913 309" fill="none">
  <title>Lokantara</title>
  <g transform="translate(50.631 207.344) scale(1 -1)">
    <path fill="#0E1E36" d="M9.326 0 L9.326 105.688 L28.168 105.688 L28.168 15.9 L76.131 15.9 L76.131 0 Z M128.163 -1.805 Q112.73 -1.805 101.468 4.849 Q90.205 11.502 84.098 23.757 Q77.992 36.012 77.992 52.808 L77.992 52.954 Q77.992 69.749 84.135 81.968 Q90.278 94.186 101.541 100.84 Q112.804 107.493 128.163 107.493 Q143.568 107.493 154.817 100.828 Q166.067 94.163 172.173 81.956 Q178.28 69.749 178.28 52.954 L178.28 52.808 Q178.28 36.012 172.173 23.769 Q166.067 11.525 154.854 4.86 Q143.641 -1.805 128.163 -1.805 Z M128.163 14.528 Q137.754 14.528 144.665 19.243 Q151.576 23.958 155.314 32.552 Q159.052 41.146 159.052 52.808 L159.052 52.954 Q159.052 64.689 155.277 73.271 Q151.503 81.853 144.555 86.506 Q137.608 91.16 128.163 91.16 Q118.765 91.16 111.792 86.518 Q104.819 81.877 101.02 73.319 Q97.22 64.762 97.22 52.954 L97.22 52.808 Q97.22 41.073 101.02 32.479 Q104.819 23.885 111.755 19.207 Q118.692 14.528 128.163 14.528 Z M207.428 32.889 L207.428 56.06 L208.896 56.06 L249.871 105.688 L271.502 105.688 L231.525 57.938 L228.547 57.938 Z M189.567 0 L189.567 105.688 L208.41 105.688 L208.41 0 Z M251.72 0 L216.198 50.182 L229.743 62.804 L274.666 0 Z M273.512 0 L311.313 105.688 L327.247 105.688 L327.247 86.9 L321.743 86.9 L293.316 0 Z M292.69 27.327 L297.734 41.919 L346.14 41.919 L351.183 27.327 Z M350.507 0 L322.129 86.9 L322.129 105.688 L332.56 105.688 L370.311 0 Z M377.833 0 L377.833 105.688 L394.78 105.688 L456.602 16.798 L438.743 31.566 L446.76 31.566 L446.76 105.688 L465.502 105.688 L465.502 0 L448.649 0 L386.756 89.169 L404.592 74.401 L396.576 74.401 L396.576 0 Z M506.211 0 L506.211 89.788 L474.625 89.788 L474.625 105.688 L556.639 105.688 L556.639 89.788 L525.053 89.788 L525.053 0 Z M543.965 0 L581.766 105.688 L597.699 105.688 L597.699 86.9 L592.196 86.9 L563.769 0 Z M563.143 27.327 L568.186 41.919 L616.592 41.919 L621.636 27.327 Z M620.959 0 L592.582 86.9 L592.582 105.688 L603.013 105.688 L640.763 0 Z M670.784 42.372 L670.784 42.996 C671.72 42.84 672.968 42.84 673.748 42.84 C684.356 43.932 693.248 49.86 693.248 64.368 L693.248 90.108 L709.628 90.108 L709.628 104.46 L634.748 104.46 L634.748 90.108 L675.308 90.108 L675.308 64.992 C675.308 58.752 672.188 56.412 667.352 56.412 C661.736 56.412 658.148 59.532 654.092 65.148 L640.364 54.384 L683.732 -0.216 L698.552 9.144 L682.64 28.8 C677.18 35.508 674.06 38.94 670.784 42.372 Z M705.613 0 L743.414 105.688 L759.347 105.688 L759.347 86.9 L753.844 86.9 L725.417 0 Z M724.791 27.327 L729.834 41.919 L778.24 41.919 L783.284 27.327 Z M782.607 0 L754.229 86.9 L754.229 105.688 L764.661 105.688 L802.411 0 Z"/>
  </g>
</svg>
